# xmcd
#
# Track frame offsets: 
#        150
#        16329
#        40643
#        58311
#        81596
#        98386
#        119431
#        137761
#        158858
#        181116
#        200276
#
# Disc length: 2877 seconds
#
# Revision: 0
# Processed by: cddbd v1.5.2PL0 Copyright (c) Steve Scherf et al.
# Submitted via: ExactAudioCopy v1.3
#
DISCID=8a0b3b0b
DTITLE=羚羊角乐队 - 羚羊角II
DYEAR=2008
DGENRE=Folk
TTITLE0=我们的歌
TTITLE1=天路记
TTITLE2=命中注定
TTITLE3=牧童之梦
TTITLE4=故乡
TTITLE5=江孜民歌
TTITLE6=巴桑普赤
TTITLE7=丹增央吉
TTITLE8=哭泣的羚羊
TTITLE9=回家
TTITLE10=谁让我激动
EXTD=
EXTT0=
EXTT1=
EXTT2=
EXTT3=
EXTT4=
EXTT5=
EXTT6=
EXTT7=
EXTT8=
EXTT9=
EXTT10=
PLAYORDER=
